<svg xmlns="http://www.w3.org/2000/svg" xml:space="preserve" id="Ebene_1" x="0" y="0" style="enable-background:new 0 0 256 256" version="1.1" viewBox="0 0 256 256"><style>.st0{fill:#15ca55}</style><path d="M0 0h256v256H0z" class="st0"/><path d="M41.4 77.8h178.7v100.5H41.4z" style="fill:#fff"/><path d="M127.8 155.6c0 .2-.2.4-.4.4H91.9c-.2 0-.4-.2-.4-.4v-7.3c0-.5.2-.8.4-1l21.3-21.1c1.4-1.3 5.2-5 5.2-9.4-.1-3.7-2.5-8.7-8.7-8.7-5.3 0-8.7 4.5-8.7 8.7 0 .2-.2.4-.4.4h-8.7c-.2 0-.4-.2-.4-.4 0-9.8 7.5-17.5 18.1-17.5 11.4 0 18.3 7.7 18.3 17.5 0 8.2-5 13.2-7.9 15.8l-15.1 14c-.2.2-.2.7.2.7h22.2c.2 0 .4.2.4.4v7.9zM151.5 99.3c10.6 0 17.8 7.5 17.8 16.5 0 6.1-3.7 9.8-6.6 11.5-.4.2-.3.6 0 .8 2.9 1.4 7.3 5.9 7.3 12.5 0 8.6-6 16.1-18.5 16.2-12.2 0-18-8-18-17 0-.2.2-.4.4-.4h8.7c.2 0 .4.2.4.4 0 2.9 2.4 8.3 8.5 8.3 5.3 0 9-3.8 9-7.5 0-6-4.3-8.4-9-8.5h-2.6c-.2 0-.4-.2-.4-.4v-7.9c0-.2.2-.4.4-.4h2.6c4.1 0 8.3-2.2 8.3-7.5 0-3.7-3.3-7.8-8.3-7.8-4.9 0-8.2 4.6-8.2 8.7 0 .2-.2.4-.4.4h-8.7c-.2 0-.4-.2-.4-.4.1-9.9 7.2-17.5 17.7-17.5z" class="st0"/></svg>
