<svg viewBox="0 0 65 36" fill="none" xmlns="http://www.w3.org/2000/svg">
    <rect width="65" height="36" fill="#1EC95B"></rect>
    <path fill-rule="evenodd" clip-rule="evenodd" d="M32.2301 24.1657C32.2301 24.0847 32.1761 24.0307 32.0951 24.0307H24.5351C24.4001 24.0307 24.3731 23.8687 24.4541 23.7877L29.5841 19.0357C30.5561 18.1447 32.2571 16.4437 32.2571 13.6627C32.2571 10.3417 29.9351 7.72266 26.0471 7.72266C22.4561 7.72266 19.8911 10.3147 19.8911 13.6627C19.8911 13.7437 19.9451 13.7977 20.0261 13.7977H22.9691C23.0501 13.7977 23.1041 13.7437 23.1041 13.6627C23.1041 12.2587 24.2381 10.7197 26.0471 10.7197C28.1531 10.7197 28.9901 12.3937 29.0171 13.6627C29.0441 15.1477 27.7211 16.4167 27.2621 16.8487L20.0261 24.0307C19.9451 24.1117 19.8911 24.2197 19.8911 24.3817V26.8657C19.8911 26.9467 19.9451 27.0007 20.0261 27.0007H32.0951C32.1761 27.0007 32.2301 26.9467 32.2301 26.8657V24.1657ZM34.2541 13.6627C34.2541 13.7437 34.3081 13.7977 34.3891 13.7977H37.3321C37.4131 13.7977 37.4671 13.7437 37.4671 13.6627C37.4671 12.2587 38.5741 10.6927 40.2481 10.6927C41.9491 10.6927 43.0561 12.0697 43.0561 13.3387C43.0561 15.1477 41.6521 15.9037 40.2481 15.9037H39.3571C39.2761 15.9037 39.2221 15.9577 39.2221 16.0387V18.7387C39.2221 18.8197 39.2761 18.8737 39.3571 18.8737H40.2481C41.8411 18.9007 43.2991 19.7377 43.2991 21.7627C43.2991 23.0047 42.0571 24.3007 40.2481 24.3007C38.1691 24.3007 37.3591 22.4647 37.3591 21.4927C37.3591 21.4117 37.3051 21.3577 37.2241 21.3577H34.2541C34.1731 21.3577 34.1191 21.4117 34.1191 21.4927C34.1191 24.5437 36.1171 27.2707 40.2481 27.2707C44.5141 27.2437 46.5391 24.6787 46.5391 21.7627C46.5391 19.5217 45.0271 18.0097 44.0551 17.5237C43.9471 17.4697 43.9201 17.3347 44.0551 17.2537C45.0271 16.6597 46.2961 15.4177 46.2961 13.3387C46.2961 10.2607 43.8661 7.72266 40.2481 7.72266C36.6571 7.72266 34.2541 10.3147 34.2541 13.6627Z" fill="white"></path>
</svg>
